<?xml version="1.0" encoding="utf-8"?>
<!-- Generator: Adobe Illustrator 22.0.1, SVG Export Plug-In . SVG Version: 6.00 Build 0)  -->
<svg version="1.1" id="_Layer_" xmlns="http://www.w3.org/2000/svg" xmlns:xlink="http://www.w3.org/1999/xlink" x="0px" y="0px"
	 viewBox="0 0 6246 5101.9" style="enable-background:new 0 0 6246 5101.9;" xml:space="preserve">
<style type="text/css">
	.st0{fill:#C4FFF5;}
	.st1{fill:#397599;}
	.st2{fill:url(#SVGID_1_);}
</style>
<title>Монтажная область 60</title>
<path class="st0" d="M2118.4,2282.5c-76.4-4.3-152.9-2.3-229,6.2c-65.5,7.3-123.4-44.7-120.2-110.5c0.7-14.3,0.9-28.8,0.7-43.4
	c-5.6-373.1-318.1-674.1-691.3-666.1C711.9,1476.6,417,1776.4,417,2145c0,236.9,121.9,445.4,306.4,566.2
	c111.9,73.3,153.4,218.8,95.7,339.6c-87.4,183-132.4,383.3-131.6,586.1c1.9,744.6,599.5,1344.7,1344.2,1349.4
	c752,4.8,1362.9-603.9,1361.9-1355C3392.5,2918,2830.4,2322.8,2118.4,2282.5z"/>
<circle class="st0" cx="4881.9" cy="1062.6" r="947.1"/>
<path class="st1" d="M5071.4,873.1c-626.7-626.7-1646.5-626.7-2273.2,0l-22.9-22.9c639.4-639.4,1679.7-639.4,2319.1,0L5071.4,873.1z
	"/>
<linearGradient id="SVGID_1_" gradientUnits="userSpaceOnUse" x1="1793.7123" y1="-1101.1383" x2="5448.0005" y2="1008.6531" gradientTransform="matrix(1 0 0 -1 0 2477.8899)">
	<stop  offset="0" style="stop-color:#397599"/>
	<stop  offset="0.5" style="stop-color:#89B3CC"/>
	<stop  offset="1" style="stop-color:#89B3CC"/>
</linearGradient>
<path class="st2" d="M5595.3,1740.6c-59.6-67.6-140.1-113.3-228.8-129.8c-87.4-16.3-162.9-71.6-199.2-152.9
	C4956.7,985.7,4483.7,656.7,3934,656.7c-458.1,0-862.9,228.5-1107,578c-96.7,138.4-249.8,228.4-418.4,234.6
	c-597.4,22.9-1063.1,525.7-1040.2,1123.1c10.4,272.5,123.4,531.1,316.2,723.9c242.6,243,571.9,346.3,888.1,309.9
	c186.9-21.5,373.8,52,492.4,198.2c227.8,280.8,606.9,417.4,978.5,317.7c438.8-117.8,722.2-526.2,699.4-963.1
	c-2.3-50.8,19.3-99.7,58.4-132.2c170-142.8,302.4-325.2,385.4-531.1c23.1-57.3,76.7-96.6,138.4-101.5
	c104.2-8.4,201-56.9,270.1-135.3C5730.4,2126.5,5730.4,1892.9,5595.3,1740.6z"/>
<path class="st1" d="M2446.5,3379c-456.6,0-828-371.4-828-828.1h32.5c0,438.8,356.9,795.6,795.6,795.6V3379z"/>
</svg>
